<?xml version="1.0" encoding="UTF-8"?>
<svg width="640" height="480" xmlns="http://www.w3.org/2000/svg" xmlns:svg="http://www.w3.org/2000/svg">
 <title>Coral and Mint Bird</title>
 <g>
  <path opacity="0.9" d="m431.28,153.28586l40.41458,-27.14364l-57.63403,-16.60553c-48.13727,-83.24165 -146.3707,-39.83146 -179.20444,39.33834c-39.6109,95.42541 -153.06437,130.23581 -153.06437,130.23581c80.74729,94.51175 153.57295,111.5791 202.14646,107.81171c48.59885,-3.79175 179.76306,-41.38868 152.4585,-209.18528c-1.41822,-8.72494 -3.14231,-16.84544 -5.1167,-24.45141z" fill="#ff6060" id="svg_100"/>
  <g id="svg_101">
   <path d="m414.06055,109.53851c6.8779,11.89854 12.72378,26.40842 17.21945,43.74916l40.41458,-27.14393l-57.63403,-16.60523z" fill="#aaffd4" id="svg_102"/>
   <path d="m349.81152,214.90515c0,0 -134.82188,-27.35739 -150.27922,46.46695c-15.4552,73.81522 109.0208,116.65643 150.27922,-46.46695z" fill="#aaffd4" id="svg_103"/>
   <path d="m375.75629,107.48636c0.89907,7.91613 -3.24433,14.89057 -9.27713,15.58112c-6.05539,0.66742 -11.70234,-5.21997 -12.599,-13.12363c-0.92072,-7.91584 3.22455,-14.89028 9.2796,-15.58081c6.05728,-0.64585 11.67578,5.20901 12.59653,13.12332z" fill="#aaffd4" id="svg_104"/>
  </g>
  <title>Layer 1</title>
 </g>
</svg>